<?xml version="1.0" encoding="utf-8"?>
<!-- Generator: Adobe Illustrator 22.0.1, SVG Export Plug-In . SVG Version: 6.00 Build 0)  -->
<svg version="1.1" id="Layer_1" xmlns="http://www.w3.org/2000/svg" xmlns:xlink="http://www.w3.org/1999/xlink" x="0px" y="0px"
	 viewBox="0 0 35 35" style="enable-background:new 0 0 35 35;" xml:space="preserve">
<style type="text/css">
	.st0{fill-rule:evenodd;clip-rule:evenodd;fill:#D8D8D8;}
	.st1{fill-rule:evenodd;clip-rule:evenodd;fill:#FFFFFF;}
</style>
<path class="st0" d="M28,0H7C3.1,0,0,3.1,0,7v21c0,3.9,3.1,7,7,7h21c3.9,0,7-3.1,7-7V7C35,3.1,31.9,0,28,0z"/>
<g>
	<g>
		<g>
			<path class="st1" d="M27.6,9.7c-0.6-0.6-1.5-0.6-2,0L14.4,22.2l-5-4.9c-0.6-0.6-1.5-0.6-2,0c-0.6,0.6-0.6,1.4,0,2l5.8,5.7
				c0.1,0.1,0.1,0.2,0.2,0.3c0.3,0.3,0.7,0.4,1.1,0.4c0.4,0,0.8-0.1,1.1-0.4c0.1-0.1,0.2-0.3,0.3-0.5l11.7-13.1
				C28.1,11.1,28.1,10.2,27.6,9.7z"/>
		</g>
	</g>
</g>
</svg>
