<?xml version="1.0" encoding="utf-8"?>
<!-- Generator: Adobe Illustrator 22.0.1, SVG Export Plug-In . SVG Version: 6.00 Build 0)  -->
<svg version="1.1" id="Layer_1" xmlns="http://www.w3.org/2000/svg" xmlns:xlink="http://www.w3.org/1999/xlink" x="0px" y="0px"
	 viewBox="0 0 32 32" style="enable-background:new 0 0 32 32;" xml:space="preserve">
<style type="text/css">
	.st0{fill:#FFFFFF;}
</style>
<g>
	<g>
		<path class="st0" d="M10.9,17.2H7.3c-2.1,0-3.8,1.7-3.8,3.8v3.6c0,2.1,1.7,3.8,3.8,3.8h3.6c2.1,0,3.8-1.7,3.8-3.8v-3.6
			C14.8,19,13,17.2,10.9,17.2z M12.7,24.7c0,1-0.8,1.7-1.7,1.7H7.3c-1,0-1.7-0.8-1.7-1.7v-3.6c0-1,0.8-1.7,1.7-1.7h3.6
			c1,0,1.7,0.8,1.7,1.7V24.7z M24.7,17.2h-3.6c-2.1,0-3.8,1.7-3.8,3.8v3.6c0,2.1,1.7,3.8,3.8,3.8h3.6c2.1,0,3.8-1.7,3.8-3.8v-3.6
			C28.5,19,26.8,17.2,24.7,17.2z M26.4,24.7c0,1-0.8,1.7-1.7,1.7h-3.6c-1,0-1.7-0.8-1.7-1.7v-3.6c0-1,0.8-1.7,1.7-1.7h3.6
			c1,0,1.7,0.8,1.7,1.7V24.7z M24.7,3.5h-3.6c-2.1,0-3.8,1.7-3.8,3.8v3.6c0,2.1,1.7,3.8,3.8,3.8h3.6c2.1,0,3.8-1.7,3.8-3.8V7.3
			C28.5,5.2,26.8,3.5,24.7,3.5z M26.4,10.9c0,1-0.8,1.7-1.7,1.7h-3.6c-1,0-1.7-0.8-1.7-1.7V7.3c0-1,0.8-1.7,1.7-1.7h3.6
			c1,0,1.7,0.8,1.7,1.7V10.9z M10.9,3.5H7.3c-2.1,0-3.8,1.7-3.8,3.8v3.6c0,2.1,1.7,3.8,3.8,3.8h3.6c2.1,0,3.8-1.7,3.8-3.8V7.3
			C14.8,5.2,13,3.5,10.9,3.5z M12.7,10.9c0,1-0.8,1.7-1.7,1.7H7.3c-1,0-1.7-0.8-1.7-1.7V7.3c0-1,0.8-1.7,1.7-1.7h3.6
			c1,0,1.7,0.8,1.7,1.7V10.9z"/>
	</g>
</g>
</svg>
