<?xml version="1.0" encoding="utf-8"?>
<!-- Generator: Adobe Illustrator 22.0.1, SVG Export Plug-In . SVG Version: 6.00 Build 0)  -->
<svg version="1.1" id="Layer_1" xmlns="http://www.w3.org/2000/svg" xmlns:xlink="http://www.w3.org/1999/xlink" x="0px" y="0px"
	 viewBox="0 0 32 32" style="enable-background:new 0 0 32 32;" xml:space="preserve">
<style type="text/css">
	.st0{fill:#3E48CC;}
</style>
<g>
	<g>
		<path class="st0" d="M14.9,14.6v2.2h2.2v-2.2H14.9z M26.7,4.2h-1.3V2h-2.2v2.2H8.8V2H6.6v2.2H5.3C3.5,4.2,2,5.7,2,7.5v19.3
			C2,28.5,3.5,30,5.3,30h11.3c-0.8-0.6-1.4-1.4-2-2.2H5.3c-0.6,0-1.1-0.5-1.1-1.1V12.3h23.6v2.3c0.8,0.5,1.6,1.2,2.2,2V7.5
			C30,5.7,28.5,4.2,26.7,4.2z M27.8,10.1H4.2V7.5c0-0.6,0.5-1.1,1.1-1.1h1.3v2.2h2.2V6.4h14.4v2.2h2.2V6.4h1.3
			c0.6,0,1.1,0.5,1.1,1.1V10.1z M22.6,15.2c-4.1,0-7.4,3.3-7.4,7.4s3.3,7.4,7.4,7.4c4.1,0,7.4-3.3,7.4-7.4S26.7,15.2,22.6,15.2z
			 M22.6,27.8c-2.9,0-5.2-2.3-5.2-5.2s2.3-5.2,5.2-5.2c2.9,0,5.2,2.3,5.2,5.2S25.5,27.8,22.6,27.8z M23.7,19h-2.2v4.8h4v-2.2h-1.9
			V19z M12.7,19h-2.2v2.2h2.2V19z M8.3,19H6.2v2.2h2.2V19z M8.3,14.6H6.2v2.2h2.2V14.6z M6.2,25.5h2.2v-2.2H6.2V25.5z M12.7,14.6
			h-2.2v2.2h2.2V14.6z M10.5,25.5h2.2v-2.2h-2.2V25.5z"/>
	</g>
</g>
</svg>
