<?xml version="1.0" encoding="utf-8"?>
<!-- Generator: Adobe Illustrator 22.0.1, SVG Export Plug-In . SVG Version: 6.00 Build 0)  -->
<svg version="1.1" id="Layer_1" xmlns="http://www.w3.org/2000/svg" xmlns:xlink="http://www.w3.org/1999/xlink" x="0px" y="0px"
	 viewBox="0 0 30 30" style="enable-background:new 0 0 30 30;" xml:space="preserve">
<style type="text/css">
	.st0{fill:#FFFFFF;}
</style>
<path class="st0" d="M23.6,27H6.4C4.5,27,3,25.5,3,23.7v-2.2c0-0.7,0.5-1.2,1.2-1.2s1.2,0.5,1.2,1.2v2.2c0,0.5,0.4,0.9,0.9,0.9h17.3
	c0.5,0,0.9-0.4,0.9-0.9v-9.9c0-0.3-0.1-0.5-0.3-0.7l-8.6-7.6c-0.4-0.3-0.9-0.3-1.2,0l-8.6,7.6c-0.2,0.2-0.3,0.4-0.3,0.7v1.8
	c0,0.7-0.5,1.2-1.2,1.2S3,16.3,3,15.7v-1.8c0-0.9,0.4-1.8,1.1-2.4l8.6-7.6c1.3-1.1,3.2-1.1,4.5,0l8.6,7.6c0.7,0.6,1.1,1.5,1.1,2.4
	v9.9C27,25.5,25.5,27,23.6,27z"/>
</svg>
