<?xml version="1.0" encoding="utf-8"?>
<!-- Generator: Adobe Illustrator 22.0.1, SVG Export Plug-In . SVG Version: 6.00 Build 0)  -->
<svg version="1.1" id="Layer_1" xmlns="http://www.w3.org/2000/svg" xmlns:xlink="http://www.w3.org/1999/xlink" x="0px" y="0px"
	 viewBox="0 0 25 25" style="enable-background:new 0 0 25 25;" xml:space="preserve">
<style type="text/css">
	.st0{fill:#FFFFFF;}
</style>
<g>
	<g>
		<path class="st0" d="M16.5,22.6H5.4c-2-2.8-3-6.5-3-10.1c0-3.6,1-7.3,3-10.1h11.1c0.5,0,0.9-0.4,0.9-0.9S17,0.5,16.5,0.5H4.9
			c-0.3,0-0.6,0.1-0.7,0.4C1.7,4.1,0.5,8.3,0.5,12.5c0,4.2,1.2,8.4,3.7,11.6c0.2,0.2,0.5,0.4,0.7,0.4h11.6c0.5,0,0.9-0.4,0.9-0.9
			C17.5,23,17,22.6,16.5,22.6z M24.2,11.8C24.2,11.8,24.2,11.8,24.2,11.8l-3.6-3.6c-0.4-0.4-1-0.4-1.3,0c-0.4,0.4-0.4,1,0,1.3l2,2
			H9.5c-0.5,0-0.9,0.4-0.9,0.9c0,0.5,0.4,0.9,0.9,0.9h11.8l-2,2c-0.4,0.4-0.4,1,0,1.3c0.4,0.4,1,0.4,1.3,0l3.6-3.6
			C24.6,12.8,24.6,12.2,24.2,11.8z"/>
	</g>
</g>
</svg>
