<?xml version="1.0" encoding="utf-8"?>
<!-- Generator: Adobe Illustrator 22.0.1, SVG Export Plug-In . SVG Version: 6.00 Build 0)  -->
<svg version="1.1" id="Layer_1" xmlns="http://www.w3.org/2000/svg" xmlns:xlink="http://www.w3.org/1999/xlink" x="0px" y="0px"
	 viewBox="0 0 184 73" style="enable-background:new 0 0 184 73;" xml:space="preserve">
<style type="text/css">
	.st0{fill:#AA4A09;}
	.st1{fill:#2637B5;}
	.st2{fill:#3F49CC;}
	.st3{fill:#FFFFFF;}
	.st4{fill:#ED7829;}
	.st5{fill:#D3620D;}
	.st6{fill:#595959;}
</style>
<g>
	<path class="st0" d="M72.9,3.4v50.9l-18.5,18c0.3-0.3,0.4-0.8,0.4-1.2V20c0-0.5-0.2-1-0.5-1.3c0,0,0,0,0-0.1v-0.1l2.2-2.2l0,0
		L71.9,1C72.6,1.6,72.9,2.5,72.9,3.4z"/>
	<g>
		<path class="st1" d="M184,28c0-2.4-2-4.4-4.4-4.4H60.3c-1.1,0-2.2,0.5-3,1.2l0,0l-0.1,0.1c0,0,0,0-0.1,0.1l-2.5,2.5l1.2,1.4v25.3
			c0,2.4,2,4.4,4.4,4.4h119l1.1,1l2.1-2.2c0.1-0.1,0.2-0.2,0.2-0.2L183,57l0,0c0.6-0.8,1-1.7,1-2.8V28z"/>
		<path class="st2" d="M181.7,30.3v26.2c0,2.4-2,4.4-4.4,4.4H58c-2.4,0-4.4-2-4.4-4.4V30.3c0-2.4,2-4.4,4.4-4.4h119.3
			C179.7,25.9,181.7,27.9,181.7,30.3z"/>
		<g>
			<path class="st3" d="M77.9,50.6h-4.5l-2.1-5.3c-0.2-0.6-0.8-0.9-1.7-0.9h-1.5v6.2H64v-16h7.4c1.9,0,3.4,0.4,4.4,1.2
				c1,0.8,1.5,2,1.5,3.6c0,1.1-0.3,2-0.9,2.8C75.8,43,75,43.6,74,43.9c0.4,0.1,0.9,0.3,1.2,0.6c0.4,0.3,0.6,0.8,0.9,1.3L77.9,50.6z
				 M72.8,40.8c0.4-0.3,0.6-0.7,0.6-1.3c0-0.6-0.2-1.1-0.6-1.3c-0.4-0.3-1.1-0.4-2-0.4h-2.7v3.4h2.7C71.7,41.3,72.3,41.1,72.8,40.8z
				"/>
			<path class="st3" d="M80.1,50.6v-16h11.4v3.2h-7.3v3H91v3.2h-6.8v3.3h7.3v3.2H80.1z"/>
			<path class="st3" d="M97.6,50.6V38h-4.8v-3.4h13.8V38h-4.8v12.6H97.6z"/>
			<path class="st3" d="M110.1,49.1c-1.2-1.2-1.8-2.9-1.8-5.2v-9.3h4.1V44c0,1.2,0.3,2,0.8,2.7c0.5,0.6,1.3,0.9,2.2,0.9
				c0.9,0,1.7-0.3,2.2-0.9c0.5-0.6,0.8-1.5,0.8-2.6v-9.4h4.2v9.3c0,2.2-0.6,4-1.8,5.2c-1.2,1.2-3,1.8-5.3,1.8
				C113.1,50.8,111.3,50.2,110.1,49.1z"/>
			<path class="st3" d="M139.2,50.6h-4.5l-2.1-5.3c-0.2-0.6-0.8-0.9-1.7-0.9h-1.5v6.2h-4.2v-16h7.4c1.9,0,3.4,0.4,4.4,1.2
				c1,0.8,1.5,2,1.5,3.6c0,1.1-0.3,2-0.9,2.8c-0.6,0.8-1.4,1.3-2.4,1.7c0.4,0.1,0.9,0.3,1.2,0.6c0.4,0.3,0.6,0.8,0.9,1.3L139.2,50.6
				z M134,40.8c0.4-0.3,0.6-0.7,0.6-1.3c0-0.6-0.2-1.1-0.6-1.3c-0.4-0.3-1.1-0.4-2-0.4h-2.7v3.4h2.7C132.9,41.3,133.6,41.1,134,40.8
				z"/>
			<path class="st3" d="M151.6,34.6h4v16h-3.1l-7.3-9.1v9.1h-3.9v-16h3.1l7.3,9V34.6z"/>
			<path class="st3" d="M160.8,50.4c-1.2-0.3-2.1-0.7-2.9-1.3l1.3-3c0.8,0.5,1.6,0.9,2.5,1.1c0.9,0.3,1.8,0.4,2.6,0.4
				c0.9,0,1.6-0.1,2.1-0.4c0.5-0.2,0.7-0.6,0.7-1c0-0.4-0.2-0.7-0.7-1c-0.4-0.3-1.3-0.5-2.4-0.8c-1.5-0.3-2.7-0.7-3.5-1.1
				c-0.8-0.4-1.4-1-1.8-1.6c-0.3-0.6-0.5-1.3-0.5-2.2c0-1,0.3-1.9,0.8-2.6c0.6-0.8,1.3-1.4,2.3-1.8c1-0.4,2.1-0.7,3.4-0.7
				c1.2,0,2.3,0.2,3.4,0.5c1.1,0.3,1.9,0.7,2.6,1.3l-1.3,3c-0.7-0.5-1.4-0.9-2.2-1.1c-0.8-0.3-1.6-0.4-2.3-0.4
				c-0.8,0-1.4,0.1-1.8,0.4c-0.5,0.3-0.7,0.7-0.7,1.2c0,0.3,0.1,0.5,0.2,0.7c0.2,0.2,0.5,0.4,0.9,0.5c0.4,0.2,1.1,0.4,2,0.6
				c1.5,0.3,2.6,0.7,3.4,1.1c0.8,0.4,1.4,1,1.8,1.6c0.3,0.6,0.5,1.3,0.5,2.1c0,1.6-0.6,2.8-1.8,3.7c-1.2,0.9-2.9,1.3-5.1,1.3
				C163.1,50.8,161.9,50.7,160.8,50.4z"/>
		</g>
	</g>
	<path class="st4" d="M71.9,1L71.9,1L58.4,14.5l-1.9,1.9l-2.2,2.2v0.1c0,0,0,0-0.1,0c-0.3-0.3-0.7-0.5-1.1-0.5c-0.1,0-0.2,0-0.3,0
		H1.9c-0.5,0-0.9,0.2-1.2,0.4L18.9,0h50.6C70.5,0,71.3,0.4,71.9,1z"/>
	<path class="st5" d="M54.9,20v51.1c0,0.5-0.2,0.9-0.4,1.2C54.1,72.7,53.6,73,53,73H1.9C0.9,73,0,72.1,0,71.1V20
		c0-0.4,0.2-0.9,0.4-1.2c0,0,0-0.1,0.1-0.1l0.2-0.2c0,0,0,0,0,0C1,18.2,1.5,18,1.9,18H53c0.1,0,0.2,0,0.3,0c0.4,0.1,0.8,0.3,1.1,0.5
		c0,0,0,0,0.1,0c0,0,0,0,0,0.1C54.7,19,54.9,19.5,54.9,20z"/>
	<g>
		<path class="st0" d="M27,41.6c0.4,0,0.7-0.3,0.8-0.7l0.2-2.1c0-0.3,0-0.5-0.1-0.6c-0.1-0.1-0.3-0.2-0.5-0.2h-8.6
			c-0.4,0-0.7,0.3-0.8,0.7l-1.5,14.1c0,0.3,0,0.5,0.1,0.6c0.1,0.1,0.3,0.2,0.5,0.2h8.7c0.4,0,0.7-0.3,0.8-0.7l0.2-2.1
			c0-0.3-0.1-0.5-0.1-0.6c-0.1-0.1-0.3-0.2-0.6-0.2h-5.2l0.2-2.4h4.7c0.4,0,0.7-0.3,0.8-0.7l0.2-2.1c0-0.3,0-0.5-0.1-0.6
			c-0.1-0.1-0.3-0.2-0.5-0.2h-4.6l0.2-2.4H27z"/>
		<path class="st0" d="M44.2,56.7c-0.3-0.4-0.8-0.6-1.3-0.6c-0.5,0-1,0.2-1.4,0.5c-0.4,0.3-0.6,0.8-0.6,1.3c0,0.5,0.2,1,0.5,1.4
			l1.6,1.8l-16.1,0c-9.4,0-15.2-5.8-15.2-15.2c0-9.4,7.6-17,17-17c9.4,0,17,7.6,17,17c0,1.3-0.2,2.7-0.5,4l-11.7,0l8.2-8.4
			c0.2-0.2,0.3-0.5,0.3-0.7l0.2-1.9c0-0.3-0.1-0.5-0.2-0.5c-0.1-0.1-0.3-0.2-0.5-0.2H30c-0.4,0-0.7,0.3-0.8,0.7L29,41
			c0,0.3,0.1,0.5,0.2,0.5c0.1,0.1,0.3,0.2,0.6,0.2h6.4L28,50.2c-0.2,0.2-0.3,0.5-0.3,0.7l-0.2,1.9c0,0.3,0,0.5,0.1,0.6
			c0.1,0.1,0.3,0.2,0.5,0.2H48l0.1-0.2c1-2.5,1.5-4.8,1.5-7.6c0-11.5-9.4-20.9-20.9-20.9c-11.5,0-20.9,9.4-20.9,20.9
			c0,11.6,7.5,19.1,19.1,19.1l16.4,0l-1.9,1.9c-0.4,0.4-0.6,0.9-0.6,1.4c0,0.5,0.2,1,0.6,1.4c0.4,0.4,0.8,0.6,1.4,0.6
			c0.5,0,1-0.2,1.4-0.6l4.8-4.9c0.7-0.7,0.7-1.9,0-2.7L44.2,56.7z"/>
	</g>
	<g>
		<path class="st3" d="M26.4,40.7c0.4,0,0.7-0.3,0.8-0.7l0.2-2.1c0-0.3,0-0.5-0.1-0.6c-0.1-0.1-0.3-0.2-0.5-0.2h-8.6
			c-0.4,0-0.7,0.3-0.8,0.7l-1.5,14.1c0,0.3,0,0.5,0.1,0.6c0.1,0.1,0.3,0.2,0.5,0.2h8.7c0.4,0,0.7-0.3,0.8-0.7l0.2-2.1
			c0-0.3-0.1-0.5-0.1-0.6c-0.1-0.1-0.3-0.2-0.6-0.2h-5.2l0.2-2.4h4.7c0.4,0,0.7-0.3,0.8-0.7l0.2-2.1c0-0.3,0-0.5-0.1-0.6
			c-0.1-0.1-0.3-0.2-0.5-0.2h-4.6l0.2-2.4H26.4z"/>
		<path class="st3" d="M43.6,55.8c-0.3-0.4-0.8-0.6-1.3-0.6c-0.5,0-1,0.2-1.4,0.5c-0.4,0.3-0.6,0.8-0.6,1.3c0,0.5,0.2,1,0.5,1.4
			l1.6,1.8l-16.1,0c-9.4,0-15.2-5.8-15.2-15.2c0-9.4,7.6-17,17-17c9.4,0,17,7.6,17,17c0,1.3-0.2,2.7-0.5,4l-11.7,0l8.2-8.4
			c0.2-0.2,0.3-0.5,0.3-0.7l0.2-1.9c0-0.3-0.1-0.5-0.2-0.5c-0.1-0.1-0.3-0.2-0.5-0.2H29.4c-0.4,0-0.7,0.3-0.8,0.7l-0.2,2.3
			c0,0.3,0.1,0.5,0.2,0.5c0.1,0.1,0.3,0.2,0.6,0.2h6.4l-8.1,8.4c-0.2,0.2-0.3,0.5-0.3,0.7l-0.2,1.9c0,0.3,0,0.5,0.1,0.6
			c0.1,0.1,0.3,0.2,0.5,0.2h19.9l0.1-0.2c1-2.5,1.5-4.8,1.5-7.6c0-11.5-9.4-20.9-20.9-20.9C16.5,24,7.2,33.4,7.2,44.9
			c0,11.6,7.5,19.1,19.1,19.1l16.4,0L40.8,66c-0.4,0.4-0.6,0.9-0.6,1.4c0,0.5,0.2,1,0.6,1.4c0.4,0.4,0.8,0.6,1.4,0.6
			c0.5,0,1-0.2,1.4-0.6l4.8-4.9c0.7-0.7,0.7-1.9,0-2.7L43.6,55.8z"/>
	</g>
	<polygon class="st0" points="39.8,0 31.7,8.5 38,8.5 45.6,0 	"/>
	<g>
		<path class="st6" d="M64.7,70.6v-6.3h1.3v2.5h2.5v-2.5h1.3v6.3h-1.3v-2.7h-2.5v2.7H64.7z"/>
		<path class="st6" d="M72.8,67.5l-1.1-0.2c0.1-0.4,0.3-0.8,0.6-1c0.3-0.2,0.7-0.3,1.3-0.3c0.5,0,0.9,0.1,1.2,0.2
			c0.3,0.1,0.4,0.3,0.6,0.5c0.1,0.2,0.2,0.6,0.2,1.1l0,1.4c0,0.4,0,0.7,0.1,0.9c0,0.2,0.1,0.4,0.2,0.6h-1.2c0-0.1-0.1-0.2-0.1-0.4
			c0-0.1,0-0.1,0-0.1c-0.2,0.2-0.4,0.3-0.7,0.4c-0.2,0.1-0.5,0.1-0.7,0.1c-0.5,0-0.8-0.1-1.1-0.4c-0.3-0.3-0.4-0.6-0.4-1
			c0-0.3,0.1-0.5,0.2-0.7c0.1-0.2,0.3-0.4,0.5-0.5c0.2-0.1,0.5-0.2,1-0.3c0.6-0.1,0.9-0.2,1.2-0.3v-0.1c0-0.2-0.1-0.4-0.2-0.5
			c-0.1-0.1-0.3-0.1-0.6-0.1c-0.2,0-0.4,0-0.5,0.1C73,67.1,72.9,67.3,72.8,67.5z M74.4,68.5c-0.2,0.1-0.4,0.1-0.7,0.2
			c-0.3,0.1-0.6,0.1-0.7,0.2c-0.2,0.1-0.2,0.3-0.2,0.4c0,0.2,0.1,0.3,0.2,0.4c0.1,0.1,0.3,0.2,0.5,0.2c0.2,0,0.4-0.1,0.6-0.2
			c0.1-0.1,0.2-0.2,0.3-0.4c0-0.1,0-0.3,0-0.6V68.5z"/>
		<path class="st6" d="M77.3,69.3l1.2-0.2c0.1,0.2,0.2,0.4,0.3,0.5c0.2,0.1,0.4,0.2,0.7,0.2c0.3,0,0.5-0.1,0.7-0.2
			c0.1-0.1,0.2-0.2,0.2-0.3c0-0.1,0-0.2-0.1-0.2c-0.1-0.1-0.2-0.1-0.4-0.2c-1-0.2-1.6-0.4-1.8-0.6c-0.4-0.2-0.5-0.6-0.5-1
			c0-0.4,0.2-0.7,0.5-1c0.3-0.3,0.8-0.4,1.4-0.4c0.6,0,1.1,0.1,1.4,0.3c0.3,0.2,0.5,0.5,0.6,0.9l-1.1,0.2c0-0.2-0.1-0.3-0.3-0.4
			c-0.1-0.1-0.3-0.1-0.6-0.1c-0.3,0-0.5,0-0.7,0.1c-0.1,0.1-0.1,0.1-0.1,0.2c0,0.1,0,0.2,0.1,0.2c0.1,0.1,0.5,0.2,1.1,0.3
			c0.6,0.1,1.1,0.3,1.3,0.5c0.3,0.2,0.4,0.5,0.4,0.9c0,0.4-0.2,0.8-0.5,1.1c-0.3,0.3-0.9,0.4-1.5,0.4c-0.6,0-1.1-0.1-1.5-0.4
			C77.7,70.1,77.5,69.8,77.3,69.3z"/>
		<path class="st6" d="M83.2,69.3l1.2-0.2c0.1,0.2,0.2,0.4,0.3,0.5c0.2,0.1,0.4,0.2,0.7,0.2c0.3,0,0.5-0.1,0.7-0.2
			c0.1-0.1,0.2-0.2,0.2-0.3c0-0.1,0-0.2-0.1-0.2c-0.1-0.1-0.2-0.1-0.4-0.2c-1-0.2-1.6-0.4-1.8-0.6c-0.4-0.2-0.5-0.6-0.5-1
			c0-0.4,0.2-0.7,0.5-1c0.3-0.3,0.8-0.4,1.4-0.4c0.6,0,1.1,0.1,1.4,0.3c0.3,0.2,0.5,0.5,0.6,0.9l-1.1,0.2c0-0.2-0.1-0.3-0.3-0.4
			c-0.1-0.1-0.3-0.1-0.6-0.1c-0.3,0-0.5,0-0.7,0.1c-0.1,0.1-0.1,0.1-0.1,0.2c0,0.1,0,0.2,0.1,0.2c0.1,0.1,0.5,0.2,1.1,0.3
			c0.6,0.1,1.1,0.3,1.3,0.5c0.3,0.2,0.4,0.5,0.4,0.9c0,0.4-0.2,0.8-0.5,1.1c-0.3,0.3-0.9,0.4-1.5,0.4c-0.6,0-1.1-0.1-1.5-0.4
			C83.5,70.1,83.3,69.8,83.2,69.3z"/>
		<path class="st6" d="M89.4,70.6v-6.3h1.2v6.3H89.4z"/>
		<path class="st6" d="M95.4,69.2l1.2,0.2c-0.2,0.4-0.4,0.8-0.7,1c-0.3,0.2-0.7,0.3-1.2,0.3c-0.8,0-1.4-0.3-1.8-0.8
			c-0.3-0.4-0.4-0.9-0.4-1.6c0-0.8,0.2-1.3,0.6-1.8c0.4-0.4,0.9-0.6,1.5-0.6c0.7,0,1.2,0.2,1.6,0.7c0.4,0.4,0.6,1.1,0.6,2h-3
			c0,0.4,0.1,0.6,0.3,0.8c0.2,0.2,0.4,0.3,0.7,0.3c0.2,0,0.3-0.1,0.5-0.2C95.3,69.6,95.4,69.4,95.4,69.2z M95.5,68
			c0-0.3-0.1-0.6-0.3-0.8c-0.2-0.2-0.4-0.3-0.6-0.3c-0.3,0-0.5,0.1-0.6,0.3c-0.2,0.2-0.3,0.5-0.3,0.8H95.5z"/>
		<path class="st6" d="M102.1,70.6v-6.3h4.3v1.1h-3v1.5h2.6V68h-2.6v2.7H102.1z"/>
		<path class="st6" d="M109.5,70.6h-1.2v-4.5h1.1v0.6c0.2-0.3,0.4-0.5,0.5-0.6c0.2-0.1,0.3-0.1,0.5-0.1c0.3,0,0.5,0.1,0.8,0.2
			l-0.4,1c-0.2-0.1-0.4-0.2-0.6-0.2c-0.2,0-0.3,0-0.4,0.1c-0.1,0.1-0.2,0.3-0.3,0.5c-0.1,0.2-0.1,0.7-0.1,1.5V70.6z"/>
		<path class="st6" d="M115.3,69.2l1.2,0.2c-0.2,0.4-0.4,0.8-0.7,1c-0.3,0.2-0.7,0.3-1.2,0.3c-0.8,0-1.4-0.3-1.8-0.8
			c-0.3-0.4-0.4-0.9-0.4-1.6c0-0.8,0.2-1.3,0.6-1.8c0.4-0.4,0.9-0.6,1.5-0.6c0.7,0,1.2,0.2,1.6,0.7c0.4,0.4,0.6,1.1,0.6,2h-3
			c0,0.4,0.1,0.6,0.3,0.8c0.2,0.2,0.4,0.3,0.7,0.3c0.2,0,0.3-0.1,0.5-0.2C115.2,69.6,115.3,69.4,115.3,69.2z M115.4,68
			c0-0.3-0.1-0.6-0.3-0.8c-0.2-0.2-0.4-0.3-0.6-0.3c-0.3,0-0.5,0.1-0.6,0.3c-0.2,0.2-0.3,0.5-0.3,0.8H115.4z"/>
		<path class="st6" d="M121.2,69.2l1.2,0.2c-0.2,0.4-0.4,0.8-0.7,1c-0.3,0.2-0.7,0.3-1.2,0.3c-0.8,0-1.4-0.3-1.8-0.8
			c-0.3-0.4-0.4-0.9-0.4-1.6c0-0.8,0.2-1.3,0.6-1.8c0.4-0.4,0.9-0.6,1.5-0.6c0.7,0,1.2,0.2,1.6,0.7c0.4,0.4,0.6,1.1,0.6,2h-3
			c0,0.4,0.1,0.6,0.3,0.8c0.2,0.2,0.4,0.3,0.7,0.3c0.2,0,0.3-0.1,0.5-0.2C121,69.6,121.1,69.4,121.2,69.2z M121.2,68
			c0-0.3-0.1-0.6-0.3-0.8c-0.2-0.2-0.4-0.3-0.6-0.3c-0.3,0-0.5,0.1-0.6,0.3c-0.2,0.2-0.3,0.5-0.3,0.8H121.2z"/>
		<path class="st6" d="M127.8,70.6v-6.2h1.3v5.2h3.1v1.1H127.8z"/>
		<path class="st6" d="M134.1,65.5v-1.1h1.2v1.1H134.1z M134.1,70.6v-4.5h1.2v4.5H134.1z"/>
		<path class="st6" d="M136.9,66.1h0.7v-0.3c0-0.4,0-0.7,0.1-0.9c0.1-0.2,0.2-0.3,0.4-0.5c0.2-0.1,0.5-0.2,0.8-0.2
			c0.3,0,0.7,0.1,1,0.2l-0.2,0.8c-0.2,0-0.4-0.1-0.6-0.1c-0.2,0-0.3,0-0.4,0.1c-0.1,0.1-0.1,0.2-0.1,0.5v0.3h0.9V67h-0.9v3.6h-1.2
			V67h-0.7V66.1z"/>
		<path class="st6" d="M144,69.2l1.2,0.2c-0.2,0.4-0.4,0.8-0.7,1c-0.3,0.2-0.7,0.3-1.2,0.3c-0.8,0-1.4-0.3-1.8-0.8
			c-0.3-0.4-0.4-0.9-0.4-1.6c0-0.8,0.2-1.3,0.6-1.8c0.4-0.4,0.9-0.6,1.5-0.6c0.7,0,1.2,0.2,1.6,0.7c0.4,0.4,0.6,1.1,0.6,2h-3
			c0,0.4,0.1,0.6,0.3,0.8c0.2,0.2,0.4,0.3,0.7,0.3c0.2,0,0.3-0.1,0.5-0.2C143.8,69.6,143.9,69.4,144,69.2z M144,68
			c0-0.3-0.1-0.6-0.3-0.8c-0.2-0.2-0.4-0.3-0.6-0.3c-0.3,0-0.5,0.1-0.6,0.3c-0.2,0.2-0.3,0.5-0.3,0.8H144z"/>
		<path class="st6" d="M147.6,69l-0.3-3.2v-1.5h1.3v1.5l-0.3,3.2H147.6z M147.4,70.6v-1.2h1.2v1.2H147.4z"/>
	</g>
</g>
</svg>
