<?xml version="1.0" encoding="utf-8"?>
<!-- Generator: Adobe Illustrator 22.0.1, SVG Export Plug-In . SVG Version: 6.00 Build 0)  -->
<svg version="1.1" id="Layer_1" xmlns="http://www.w3.org/2000/svg" xmlns:xlink="http://www.w3.org/1999/xlink" x="0px" y="0px"
	 viewBox="0 0 50 50" style="enable-background:new 0 0 50 50;" xml:space="preserve">
<style type="text/css">
	.st0{fill:#AA4A09;}
	.st1{fill:#ED7829;}
	.st2{fill:#D3620D;}
	.st3{fill:#FFFFFF;}
</style>
<g>
	<path class="st0" d="M50,2.3v34.9L37.3,49.5c0.2-0.2,0.3-0.5,0.3-0.8v-35c0-0.3-0.1-0.7-0.3-0.9c0,0,0,0,0,0v0l1.5-1.5l0,0
		L49.3,0.7C49.7,1.1,50,1.7,50,2.3z"/>
	<path class="st1" d="M49.3,0.7L49.3,0.7l-9.3,9.3l-1.3,1.3l-1.5,1.5v0c0,0,0,0,0,0c-0.2-0.2-0.4-0.3-0.7-0.4c-0.1,0-0.1,0-0.2,0
		h-35c-0.3,0-0.6,0.1-0.8,0.3L13,0h34.7C48.3,0,48.9,0.3,49.3,0.7z"/>
	<path class="st2" d="M37.6,13.7v35c0,0.3-0.1,0.6-0.3,0.8c-0.2,0.3-0.6,0.5-1,0.5h-35C0.6,50,0,49.4,0,48.7v-35
		c0-0.3,0.1-0.6,0.3-0.8c0,0,0,0,0,0l0.2-0.2c0,0,0,0,0,0c0.2-0.2,0.5-0.3,0.8-0.3h35c0.1,0,0.1,0,0.2,0c0.3,0,0.5,0.2,0.7,0.4
		c0,0,0,0,0,0c0,0,0,0,0,0C37.5,13,37.6,13.3,37.6,13.7z"/>
	<g>
		<path class="st0" d="M18.5,28.5c0.3,0,0.5-0.2,0.5-0.5l0.2-1.4c0-0.2,0-0.3-0.1-0.4C19,26.1,18.9,26,18.7,26h-5.9
			c-0.3,0-0.5,0.2-0.5,0.5l-1,9.6c0,0.2,0,0.3,0.1,0.4c0.1,0.1,0.2,0.1,0.4,0.1h5.9c0.3,0,0.5-0.2,0.5-0.5l0.1-1.4
			c0-0.2,0-0.3-0.1-0.4c-0.1-0.1-0.2-0.2-0.4-0.2h-3.6l0.2-1.6h3.2c0.3,0,0.5-0.2,0.5-0.5l0.2-1.5c0-0.2,0-0.3-0.1-0.4
			c-0.1-0.1-0.2-0.1-0.4-0.1h-3.2l0.2-1.6H18.5z"/>
		<path class="st0" d="M30.3,38.8c-0.2-0.3-0.6-0.4-0.9-0.4c-0.4,0-0.7,0.1-1,0.3C28.2,39,28,39.3,28,39.6c0,0.4,0.1,0.7,0.3,1
			l1.1,1.2l-11,0C12,41.8,8,37.8,8,31.4c0-6.4,5.2-11.6,11.6-11.6s11.6,5.2,11.6,11.6c0,0.9-0.1,1.8-0.3,2.8l-8,0l5.6-5.8
			c0.1-0.1,0.2-0.3,0.2-0.5l0.1-1.3c0-0.2,0-0.3-0.1-0.4c-0.1-0.1-0.2-0.1-0.4-0.1h-7.9c-0.3,0-0.5,0.2-0.5,0.5l-0.2,1.6
			c0,0.2,0,0.3,0.1,0.4c0.1,0.1,0.2,0.1,0.4,0.1h4.4l-5.6,5.8c-0.1,0.2-0.2,0.3-0.2,0.5l-0.1,1.3c0,0.2,0,0.3,0.1,0.4
			c0.1,0.1,0.2,0.1,0.4,0.1h13.6l0-0.1c0.7-1.7,1-3.3,1-5.2C34,23.5,27.6,17,19.7,17c-7.9,0-14.3,6.4-14.3,14.3
			c0,8,5.1,13.1,13.1,13.1l11.2,0l-1.3,1.3C28.1,46,28,46.4,28,46.7c0,0.4,0.1,0.7,0.4,0.9c0.2,0.2,0.6,0.4,0.9,0.4
			c0.4,0,0.7-0.1,0.9-0.4l3.3-3.4c0.5-0.5,0.5-1.3,0-1.8L30.3,38.8z"/>
	</g>
	<g>
		<path class="st3" d="M18.1,27.9c0.3,0,0.5-0.2,0.5-0.5l0.2-1.4c0-0.2,0-0.3-0.1-0.4c-0.1-0.1-0.2-0.1-0.4-0.1h-5.9
			c-0.3,0-0.5,0.2-0.5,0.5l-1,9.6c0,0.2,0,0.3,0.1,0.4c0.1,0.1,0.2,0.1,0.4,0.1h5.9c0.3,0,0.5-0.2,0.5-0.5l0.1-1.4
			c0-0.2,0-0.3-0.1-0.4c-0.1-0.1-0.2-0.2-0.4-0.2h-3.6L14,32h3.2c0.3,0,0.5-0.2,0.5-0.5l0.2-1.5c0-0.2,0-0.3-0.1-0.4
			c-0.1-0.1-0.2-0.1-0.4-0.1h-3.2l0.2-1.6H18.1z"/>
		<path class="st3" d="M29.9,38.2c-0.2-0.3-0.6-0.4-0.9-0.4c-0.4,0-0.7,0.1-1,0.3c-0.3,0.2-0.4,0.6-0.4,0.9c0,0.4,0.1,0.7,0.3,1
			l1.1,1.2l-11,0c-6.4,0-10.4-4-10.4-10.4c0-6.4,5.2-11.6,11.6-11.6s11.6,5.2,11.6,11.6c0,0.9-0.1,1.8-0.3,2.8l-8,0l5.6-5.8
			c0.1-0.1,0.2-0.3,0.2-0.5l0.1-1.3c0-0.2,0-0.3-0.1-0.4c-0.1-0.1-0.2-0.1-0.4-0.1h-7.9c-0.3,0-0.5,0.2-0.5,0.5l-0.2,1.6
			c0,0.2,0,0.3,0.1,0.4c0.1,0.1,0.2,0.1,0.4,0.1h4.4l-5.6,5.8c-0.1,0.2-0.2,0.3-0.2,0.5l-0.1,1.3c0,0.2,0,0.3,0.1,0.4
			c0.1,0.1,0.2,0.1,0.4,0.1h13.6l0-0.1c0.7-1.7,1-3.3,1-5.2c0-7.9-6.4-14.3-14.3-14.3c-7.9,0-14.3,6.4-14.3,14.3
			c0,8,5.1,13.1,13.1,13.1l11.2,0L28,45.2c-0.2,0.3-0.4,0.6-0.4,0.9c0,0.4,0.1,0.7,0.4,0.9c0.2,0.2,0.6,0.4,0.9,0.4
			c0.4,0,0.7-0.1,0.9-0.4l3.3-3.4c0.5-0.5,0.5-1.3,0-1.8L29.9,38.2z"/>
	</g>
	<polygon class="st0" points="27.3,0 21.7,5.8 26,5.8 31.3,0 	"/>
</g>
</svg>
